<?xml version='1.0' encoding='UTF-8'?>
<svg width="45mm" height="45mm" version="1.1" xmlns="http://www.w3.org/2000/svg"><rect x="4mm" y="4mm" width="1mm" height="1mm" /><rect x="5mm" y="4mm" width="1mm" height="1mm" /><rect x="6mm" y="4mm" width="1mm" height="1mm" /><rect x="7mm" y="4mm" width="1mm" height="1mm" /><rect x="8mm" y="4mm" width="1mm" height="1mm" /><rect x="9mm" y="4mm" width="1mm" height="1mm" /><rect x="10mm" y="4mm" width="1mm" height="1mm" /><rect x="12mm" y="4mm" width="1mm" height="1mm" /><rect x="13mm" y="4mm" width="1mm" height="1mm" /><rect x="15mm" y="4mm" width="1mm" height="1mm" /><rect x="17mm" y="4mm" width="1mm" height="1mm" /><rect x="18mm" y="4mm" width="1mm" height="1mm" /><rect x="20mm" y="4mm" width="1mm" height="1mm" /><rect x="21mm" y="4mm" width="1mm" height="1mm" /><rect x="22mm" y="4mm" width="1mm" height="1mm" /><rect x="23mm" y="4mm" width="1mm" height="1mm" /><rect x="25mm" y="4mm" width="1mm" height="1mm" /><rect x="27mm" y="4mm" width="1mm" height="1mm" /><rect x="28mm" y="4mm" width="1mm" height="1mm" /><rect x="29mm" y="4mm" width="1mm" height="1mm" /><rect x="34mm" y="4mm" width="1mm" height="1mm" /><rect x="35mm" y="4mm" width="1mm" height="1mm" /><rect x="36mm" y="4mm" width="1mm" height="1mm" /><rect x="37mm" y="4mm" width="1mm" height="1mm" /><rect x="38mm" y="4mm" width="1mm" height="1mm" /><rect x="39mm" y="4mm" width="1mm" height="1mm" /><rect x="40mm" y="4mm" width="1mm" height="1mm" /><rect x="4mm" y="5mm" width="1mm" height="1mm" /><rect x="10mm" y="5mm" width="1mm" height="1mm" /><rect x="12mm" y="5mm" width="1mm" height="1mm" /><rect x="14mm" y="5mm" width="1mm" height="1mm" /><rect x="16mm" y="5mm" width="1mm" height="1mm" /><rect x="17mm" y="5mm" width="1mm" height="1mm" /><rect x="19mm" y="5mm" width="1mm" height="1mm" /><rect x="24mm" y="5mm" width="1mm" height="1mm" /><rect x="30mm" y="5mm" width="1mm" height="1mm" /><rect x="34mm" y="5mm" width="1mm" height="1mm" /><rect x="40mm" y="5mm" width="1mm" height="1mm" /><rect x="4mm" y="6mm" width="1mm" height="1mm" /><rect x="6mm" y="6mm" width="1mm" height="1mm" /><rect x="7mm" y="6mm" width="1mm" height="1mm" /><rect x="8mm" y="6mm" width="1mm" height="1mm" /><rect x="10mm" y="6mm" width="1mm" height="1mm" /><rect x="12mm" y="6mm" width="1mm" height="1mm" /><rect x="13mm" y="6mm" width="1mm" height="1mm" /><rect x="14mm" y="6mm" width="1mm" height="1mm" /><rect x="24mm" y="6mm" width="1mm" height="1mm" /><rect x="25mm" y="6mm" width="1mm" height="1mm" /><rect x="28mm" y="6mm" width="1mm" height="1mm" /><rect x="29mm" y="6mm" width="1mm" height="1mm" /><rect x="30mm" y="6mm" width="1mm" height="1mm" /><rect x="31mm" y="6mm" width="1mm" height="1mm" /><rect x="32mm" y="6mm" width="1mm" height="1mm" /><rect x="34mm" y="6mm" width="1mm" height="1mm" /><rect x="36mm" y="6mm" width="1mm" height="1mm" /><rect x="37mm" y="6mm" width="1mm" height="1mm" /><rect x="38mm" y="6mm" width="1mm" height="1mm" /><rect x="40mm" y="6mm" width="1mm" height="1mm" /><rect x="4mm" y="7mm" width="1mm" height="1mm" /><rect x="6mm" y="7mm" width="1mm" height="1mm" /><rect x="7mm" y="7mm" width="1mm" height="1mm" /><rect x="8mm" y="7mm" width="1mm" height="1mm" /><rect x="10mm" y="7mm" width="1mm" height="1mm" /><rect x="14mm" y="7mm" width="1mm" height="1mm" /><rect x="16mm" y="7mm" width="1mm" height="1mm" /><rect x="20mm" y="7mm" width="1mm" height="1mm" /><rect x="21mm" y="7mm" width="1mm" height="1mm" /><rect x="23mm" y="7mm" width="1mm" height="1mm" /><rect x="25mm" y="7mm" width="1mm" height="1mm" /><rect x="28mm" y="7mm" width="1mm" height="1mm" /><rect x="29mm" y="7mm" width="1mm" height="1mm" /><rect x="32mm" y="7mm" width="1mm" height="1mm" /><rect x="34mm" y="7mm" width="1mm" height="1mm" /><rect x="36mm" y="7mm" width="1mm" height="1mm" /><rect x="37mm" y="7mm" width="1mm" height="1mm" /><rect x="38mm" y="7mm" width="1mm" height="1mm" /><rect x="40mm" y="7mm" width="1mm" height="1mm" /><rect x="4mm" y="8mm" width="1mm" height="1mm" /><rect x="6mm" y="8mm" width="1mm" height="1mm" /><rect x="7mm" y="8mm" width="1mm" height="1mm" /><rect x="8mm" y="8mm" width="1mm" height="1mm" /><rect x="10mm" y="8mm" width="1mm" height="1mm" /><rect x="12mm" y="8mm" width="1mm" height="1mm" /><rect x="15mm" y="8mm" width="1mm" height="1mm" /><rect x="16mm" y="8mm" width="1mm" height="1mm" /><rect x="17mm" y="8mm" width="1mm" height="1mm" /><rect x="18mm" y="8mm" width="1mm" height="1mm" /><rect x="19mm" y="8mm" width="1mm" height="1mm" /><rect x="21mm" y="8mm" width="1mm" height="1mm" /><rect x="23mm" y="8mm" width="1mm" height="1mm" /><rect x="29mm" y="8mm" width="1mm" height="1mm" /><rect x="30mm" y="8mm" width="1mm" height="1mm" /><rect x="32mm" y="8mm" width="1mm" height="1mm" /><rect x="34mm" y="8mm" width="1mm" height="1mm" /><rect x="36mm" y="8mm" width="1mm" height="1mm" /><rect x="37mm" y="8mm" width="1mm" height="1mm" /><rect x="38mm" y="8mm" width="1mm" height="1mm" /><rect x="40mm" y="8mm" width="1mm" height="1mm" /><rect x="4mm" y="9mm" width="1mm" height="1mm" /><rect x="10mm" y="9mm" width="1mm" height="1mm" /><rect x="13mm" y="9mm" width="1mm" height="1mm" /><rect x="20mm" y="9mm" width="1mm" height="1mm" /><rect x="21mm" y="9mm" width="1mm" height="1mm" /><rect x="22mm" y="9mm" width="1mm" height="1mm" /><rect x="24mm" y="9mm" width="1mm" height="1mm" /><rect x="25mm" y="9mm" width="1mm" height="1mm" /><rect x="27mm" y="9mm" width="1mm" height="1mm" /><rect x="28mm" y="9mm" width="1mm" height="1mm" /><rect x="32mm" y="9mm" width="1mm" height="1mm" /><rect x="34mm" y="9mm" width="1mm" height="1mm" /><rect x="40mm" y="9mm" width="1mm" height="1mm" /><rect x="4mm" y="10mm" width="1mm" height="1mm" /><rect x="5mm" y="10mm" width="1mm" height="1mm" /><rect x="6mm" y="10mm" width="1mm" height="1mm" /><rect x="7mm" y="10mm" width="1mm" height="1mm" /><rect x="8mm" y="10mm" width="1mm" height="1mm" /><rect x="9mm" y="10mm" width="1mm" height="1mm" /><rect x="10mm" y="10mm" width="1mm" height="1mm" /><rect x="12mm" y="10mm" width="1mm" height="1mm" /><rect x="14mm" y="10mm" width="1mm" height="1mm" /><rect x="16mm" y="10mm" width="1mm" height="1mm" /><rect x="18mm" y="10mm" width="1mm" height="1mm" /><rect x="20mm" y="10mm" width="1mm" height="1mm" /><rect x="22mm" y="10mm" width="1mm" height="1mm" /><rect x="24mm" y="10mm" width="1mm" height="1mm" /><rect x="26mm" y="10mm" width="1mm" height="1mm" /><rect x="28mm" y="10mm" width="1mm" height="1mm" /><rect x="30mm" y="10mm" width="1mm" height="1mm" /><rect x="32mm" y="10mm" width="1mm" height="1mm" /><rect x="34mm" y="10mm" width="1mm" height="1mm" /><rect x="35mm" y="10mm" width="1mm" height="1mm" /><rect x="36mm" y="10mm" width="1mm" height="1mm" /><rect x="37mm" y="10mm" width="1mm" height="1mm" /><rect x="38mm" y="10mm" width="1mm" height="1mm" /><rect x="39mm" y="10mm" width="1mm" height="1mm" /><rect x="40mm" y="10mm" width="1mm" height="1mm" /><rect x="13mm" y="11mm" width="1mm" height="1mm" /><rect x="14mm" y="11mm" width="1mm" height="1mm" /><rect x="15mm" y="11mm" width="1mm" height="1mm" /><rect x="20mm" y="11mm" width="1mm" height="1mm" /><rect x="23mm" y="11mm" width="1mm" height="1mm" /><rect x="24mm" y="11mm" width="1mm" height="1mm" /><rect x="25mm" y="11mm" width="1mm" height="1mm" /><rect x="27mm" y="11mm" width="1mm" height="1mm" /><rect x="28mm" y="11mm" width="1mm" height="1mm" /><rect x="29mm" y="11mm" width="1mm" height="1mm" /><rect x="31mm" y="11mm" width="1mm" height="1mm" /><rect x="32mm" y="11mm" width="1mm" height="1mm" /><rect x="4mm" y="12mm" width="1mm" height="1mm" /><rect x="7mm" y="12mm" width="1mm" height="1mm" /><rect x="8mm" y="12mm" width="1mm" height="1mm" /><rect x="9mm" y="12mm" width="1mm" height="1mm" /><rect x="10mm" y="12mm" width="1mm" height="1mm" /><rect x="11mm" y="12mm" width="1mm" height="1mm" /><rect x="12mm" y="12mm" width="1mm" height="1mm" /><rect x="13mm" y="12mm" width="1mm" height="1mm" /><rect x="15mm" y="12mm" width="1mm" height="1mm" /><rect x="16mm" y="12mm" width="1mm" height="1mm" /><rect x="18mm" y="12mm" width="1mm" height="1mm" /><rect x="20mm" y="12mm" width="1mm" height="1mm" /><rect x="22mm" y="12mm" width="1mm" height="1mm" /><rect x="23mm" y="12mm" width="1mm" height="1mm" /><rect x="24mm" y="12mm" width="1mm" height="1mm" /><rect x="25mm" y="12mm" width="1mm" height="1mm" /><rect x="28mm" y="12mm" width="1mm" height="1mm" /><rect x="30mm" y="12mm" width="1mm" height="1mm" /><rect x="33mm" y="12mm" width="1mm" height="1mm" /><rect x="36mm" y="12mm" width="1mm" height="1mm" /><rect x="38mm" y="12mm" width="1mm" height="1mm" /><rect x="39mm" y="12mm" width="1mm" height="1mm" /><rect x="40mm" y="12mm" width="1mm" height="1mm" /><rect x="4mm" y="13mm" width="1mm" height="1mm" /><rect x="7mm" y="13mm" width="1mm" height="1mm" /><rect x="8mm" y="13mm" width="1mm" height="1mm" /><rect x="9mm" y="13mm" width="1mm" height="1mm" /><rect x="12mm" y="13mm" width="1mm" height="1mm" /><rect x="13mm" y="13mm" width="1mm" height="1mm" /><rect x="15mm" y="13mm" width="1mm" height="1mm" /><rect x="16mm" y="13mm" width="1mm" height="1mm" /><rect x="18mm" y="13mm" width="1mm" height="1mm" /><rect x="24mm" y="13mm" width="1mm" height="1mm" /><rect x="26mm" y="13mm" width="1mm" height="1mm" /><rect x="29mm" y="13mm" width="1mm" height="1mm" /><rect x="33mm" y="13mm" width="1mm" height="1mm" /><rect x="34mm" y="13mm" width="1mm" height="1mm" /><rect x="35mm" y="13mm" width="1mm" height="1mm" /><rect x="36mm" y="13mm" width="1mm" height="1mm" /><rect x="38mm" y="13mm" width="1mm" height="1mm" /><rect x="39mm" y="13mm" width="1mm" height="1mm" /><rect x="5mm" y="14mm" width="1mm" height="1mm" /><rect x="6mm" y="14mm" width="1mm" height="1mm" /><rect x="7mm" y="14mm" width="1mm" height="1mm" /><rect x="10mm" y="14mm" width="1mm" height="1mm" /><rect x="12mm" y="14mm" width="1mm" height="1mm" /><rect x="13mm" y="14mm" width="1mm" height="1mm" /><rect x="14mm" y="14mm" width="1mm" height="1mm" /><rect x="16mm" y="14mm" width="1mm" height="1mm" /><rect x="17mm" y="14mm" width="1mm" height="1mm" /><rect x="18mm" y="14mm" width="1mm" height="1mm" /><rect x="21mm" y="14mm" width="1mm" height="1mm" /><rect x="25mm" y="14mm" width="1mm" height="1mm" /><rect x="26mm" y="14mm" width="1mm" height="1mm" /><rect x="28mm" y="14mm" width="1mm" height="1mm" /><rect x="29mm" y="14mm" width="1mm" height="1mm" /><rect x="31mm" y="14mm" width="1mm" height="1mm" /><rect x="32mm" y="14mm" width="1mm" height="1mm" /><rect x="34mm" y="14mm" width="1mm" height="1mm" /><rect x="35mm" y="14mm" width="1mm" height="1mm" /><rect x="36mm" y="14mm" width="1mm" height="1mm" /><rect x="38mm" y="14mm" width="1mm" height="1mm" /><rect x="40mm" y="14mm" width="1mm" height="1mm" /><rect x="5mm" y="15mm" width="1mm" height="1mm" /><rect x="6mm" y="15mm" width="1mm" height="1mm" /><rect x="7mm" y="15mm" width="1mm" height="1mm" /><rect x="9mm" y="15mm" width="1mm" height="1mm" /><rect x="11mm" y="15mm" width="1mm" height="1mm" /><rect x="12mm" y="15mm" width="1mm" height="1mm" /><rect x="13mm" y="15mm" width="1mm" height="1mm" /><rect x="14mm" y="15mm" width="1mm" height="1mm" /><rect x="15mm" y="15mm" width="1mm" height="1mm" /><rect x="16mm" y="15mm" width="1mm" height="1mm" /><rect x="17mm" y="15mm" width="1mm" height="1mm" /><rect x="19mm" y="15mm" width="1mm" height="1mm" /><rect x="21mm" y="15mm" width="1mm" height="1mm" /><rect x="22mm" y="15mm" width="1mm" height="1mm" /><rect x="26mm" y="15mm" width="1mm" height="1mm" /><rect x="30mm" y="15mm" width="1mm" height="1mm" /><rect x="35mm" y="15mm" width="1mm" height="1mm" /><rect x="36mm" y="15mm" width="1mm" height="1mm" /><rect x="37mm" y="15mm" width="1mm" height="1mm" /><rect x="38mm" y="15mm" width="1mm" height="1mm" /><rect x="39mm" y="15mm" width="1mm" height="1mm" /><rect x="40mm" y="15mm" width="1mm" height="1mm" /><rect x="4mm" y="16mm" width="1mm" height="1mm" /><rect x="7mm" y="16mm" width="1mm" height="1mm" /><rect x="8mm" y="16mm" width="1mm" height="1mm" /><rect x="10mm" y="16mm" width="1mm" height="1mm" /><rect x="11mm" y="16mm" width="1mm" height="1mm" /><rect x="16mm" y="16mm" width="1mm" height="1mm" /><rect x="18mm" y="16mm" width="1mm" height="1mm" /><rect x="20mm" y="16mm" width="1mm" height="1mm" /><rect x="23mm" y="16mm" width="1mm" height="1mm" /><rect x="24mm" y="16mm" width="1mm" height="1mm" /><rect x="32mm" y="16mm" width="1mm" height="1mm" /><rect x="34mm" y="16mm" width="1mm" height="1mm" /><rect x="35mm" y="16mm" width="1mm" height="1mm" /><rect x="40mm" y="16mm" width="1mm" height="1mm" /><rect x="4mm" y="17mm" width="1mm" height="1mm" /><rect x="5mm" y="17mm" width="1mm" height="1mm" /><rect x="8mm" y="17mm" width="1mm" height="1mm" /><rect x="9mm" y="17mm" width="1mm" height="1mm" /><rect x="11mm" y="17mm" width="1mm" height="1mm" /><rect x="12mm" y="17mm" width="1mm" height="1mm" /><rect x="15mm" y="17mm" width="1mm" height="1mm" /><rect x="18mm" y="17mm" width="1mm" height="1mm" /><rect x="19mm" y="17mm" width="1mm" height="1mm" /><rect x="20mm" y="17mm" width="1mm" height="1mm" /><rect x="21mm" y="17mm" width="1mm" height="1mm" /><rect x="22mm" y="17mm" width="1mm" height="1mm" /><rect x="23mm" y="17mm" width="1mm" height="1mm" /><rect x="27mm" y="17mm" width="1mm" height="1mm" /><rect x="29mm" y="17mm" width="1mm" height="1mm" /><rect x="30mm" y="17mm" width="1mm" height="1mm" /><rect x="31mm" y="17mm" width="1mm" height="1mm" /><rect x="36mm" y="17mm" width="1mm" height="1mm" /><rect x="37mm" y="17mm" width="1mm" height="1mm" /><rect x="5mm" y="18mm" width="1mm" height="1mm" /><rect x="8mm" y="18mm" width="1mm" height="1mm" /><rect x="9mm" y="18mm" width="1mm" height="1mm" /><rect x="10mm" y="18mm" width="1mm" height="1mm" /><rect x="13mm" y="18mm" width="1mm" height="1mm" /><rect x="18mm" y="18mm" width="1mm" height="1mm" /><rect x="19mm" y="18mm" width="1mm" height="1mm" /><rect x="21mm" y="18mm" width="1mm" height="1mm" /><rect x="23mm" y="18mm" width="1mm" height="1mm" /><rect x="24mm" y="18mm" width="1mm" height="1mm" /><rect x="25mm" y="18mm" width="1mm" height="1mm" /><rect x="26mm" y="18mm" width="1mm" height="1mm" /><rect x="28mm" y="18mm" width="1mm" height="1mm" /><rect x="29mm" y="18mm" width="1mm" height="1mm" /><rect x="30mm" y="18mm" width="1mm" height="1mm" /><rect x="31mm" y="18mm" width="1mm" height="1mm" /><rect x="32mm" y="18mm" width="1mm" height="1mm" /><rect x="33mm" y="18mm" width="1mm" height="1mm" /><rect x="34mm" y="18mm" width="1mm" height="1mm" /><rect x="36mm" y="18mm" width="1mm" height="1mm" /><rect x="37mm" y="18mm" width="1mm" height="1mm" /><rect x="38mm" y="18mm" width="1mm" height="1mm" /><rect x="39mm" y="18mm" width="1mm" height="1mm" /><rect x="40mm" y="18mm" width="1mm" height="1mm" /><rect x="4mm" y="19mm" width="1mm" height="1mm" /><rect x="5mm" y="19mm" width="1mm" height="1mm" /><rect x="8mm" y="19mm" width="1mm" height="1mm" /><rect x="9mm" y="19mm" width="1mm" height="1mm" /><rect x="11mm" y="19mm" width="1mm" height="1mm" /><rect x="13mm" y="19mm" width="1mm" height="1mm" /><rect x="17mm" y="19mm" width="1mm" height="1mm" /><rect x="18mm" y="19mm" width="1mm" height="1mm" /><rect x="19mm" y="19mm" width="1mm" height="1mm" /><rect x="21mm" y="19mm" width="1mm" height="1mm" /><rect x="22mm" y="19mm" width="1mm" height="1mm" /><rect x="23mm" y="19mm" width="1mm" height="1mm" /><rect x="28mm" y="19mm" width="1mm" height="1mm" /><rect x="30mm" y="19mm" width="1mm" height="1mm" /><rect x="31mm" y="19mm" width="1mm" height="1mm" /><rect x="32mm" y="19mm" width="1mm" height="1mm" /><rect x="33mm" y="19mm" width="1mm" height="1mm" /><rect x="34mm" y="19mm" width="1mm" height="1mm" /><rect x="35mm" y="19mm" width="1mm" height="1mm" /><rect x="37mm" y="19mm" width="1mm" height="1mm" /><rect x="38mm" y="19mm" width="1mm" height="1mm" /><rect x="39mm" y="19mm" width="1mm" height="1mm" /><rect x="5mm" y="20mm" width="1mm" height="1mm" /><rect x="7mm" y="20mm" width="1mm" height="1mm" /><rect x="8mm" y="20mm" width="1mm" height="1mm" /><rect x="10mm" y="20mm" width="1mm" height="1mm" /><rect x="11mm" y="20mm" width="1mm" height="1mm" /><rect x="12mm" y="20mm" width="1mm" height="1mm" /><rect x="13mm" y="20mm" width="1mm" height="1mm" /><rect x="14mm" y="20mm" width="1mm" height="1mm" /><rect x="15mm" y="20mm" width="1mm" height="1mm" /><rect x="17mm" y="20mm" width="1mm" height="1mm" /><rect x="18mm" y="20mm" width="1mm" height="1mm" /><rect x="20mm" y="20mm" width="1mm" height="1mm" /><rect x="21mm" y="20mm" width="1mm" height="1mm" /><rect x="23mm" y="20mm" width="1mm" height="1mm" /><rect x="24mm" y="20mm" width="1mm" height="1mm" /><rect x="25mm" y="20mm" width="1mm" height="1mm" /><rect x="29mm" y="20mm" width="1mm" height="1mm" /><rect x="31mm" y="20mm" width="1mm" height="1mm" /><rect x="34mm" y="20mm" width="1mm" height="1mm" /><rect x="38mm" y="20mm" width="1mm" height="1mm" /><rect x="39mm" y="20mm" width="1mm" height="1mm" /><rect x="40mm" y="20mm" width="1mm" height="1mm" /><rect x="6mm" y="21mm" width="1mm" height="1mm" /><rect x="12mm" y="21mm" width="1mm" height="1mm" /><rect x="13mm" y="21mm" width="1mm" height="1mm" /><rect x="16mm" y="21mm" width="1mm" height="1mm" /><rect x="18mm" y="21mm" width="1mm" height="1mm" /><rect x="20mm" y="21mm" width="1mm" height="1mm" /><rect x="22mm" y="21mm" width="1mm" height="1mm" /><rect x="24mm" y="21mm" width="1mm" height="1mm" /><rect x="27mm" y="21mm" width="1mm" height="1mm" /><rect x="28mm" y="21mm" width="1mm" height="1mm" /><rect x="29mm" y="21mm" width="1mm" height="1mm" /><rect x="31mm" y="21mm" width="1mm" height="1mm" /><rect x="32mm" y="21mm" width="1mm" height="1mm" /><rect x="38mm" y="21mm" width="1mm" height="1mm" /><rect x="4mm" y="22mm" width="1mm" height="1mm" /><rect x="6mm" y="22mm" width="1mm" height="1mm" /><rect x="7mm" y="22mm" width="1mm" height="1mm" /><rect x="9mm" y="22mm" width="1mm" height="1mm" /><rect x="10mm" y="22mm" width="1mm" height="1mm" /><rect x="11mm" y="22mm" width="1mm" height="1mm" /><rect x="15mm" y="22mm" width="1mm" height="1mm" /><rect x="17mm" y="22mm" width="1mm" height="1mm" /><rect x="19mm" y="22mm" width="1mm" height="1mm" /><rect x="24mm" y="22mm" width="1mm" height="1mm" /><rect x="25mm" y="22mm" width="1mm" height="1mm" /><rect x="27mm" y="22mm" width="1mm" height="1mm" /><rect x="29mm" y="22mm" width="1mm" height="1mm" /><rect x="31mm" y="22mm" width="1mm" height="1mm" /><rect x="33mm" y="22mm" width="1mm" height="1mm" /><rect x="37mm" y="22mm" width="1mm" height="1mm" /><rect x="40mm" y="22mm" width="1mm" height="1mm" /><rect x="5mm" y="23mm" width="1mm" height="1mm" /><rect x="6mm" y="23mm" width="1mm" height="1mm" /><rect x="7mm" y="23mm" width="1mm" height="1mm" /><rect x="13mm" y="23mm" width="1mm" height="1mm" /><rect x="14mm" y="23mm" width="1mm" height="1mm" /><rect x="15mm" y="23mm" width="1mm" height="1mm" /><rect x="18mm" y="23mm" width="1mm" height="1mm" /><rect x="26mm" y="23mm" width="1mm" height="1mm" /><rect x="28mm" y="23mm" width="1mm" height="1mm" /><rect x="29mm" y="23mm" width="1mm" height="1mm" /><rect x="31mm" y="23mm" width="1mm" height="1mm" /><rect x="32mm" y="23mm" width="1mm" height="1mm" /><rect x="33mm" y="23mm" width="1mm" height="1mm" /><rect x="34mm" y="23mm" width="1mm" height="1mm" /><rect x="35mm" y="23mm" width="1mm" height="1mm" /><rect x="36mm" y="23mm" width="1mm" height="1mm" /><rect x="37mm" y="23mm" width="1mm" height="1mm" /><rect x="40mm" y="23mm" width="1mm" height="1mm" /><rect x="5mm" y="24mm" width="1mm" height="1mm" /><rect x="10mm" y="24mm" width="1mm" height="1mm" /><rect x="12mm" y="24mm" width="1mm" height="1mm" /><rect x="14mm" y="24mm" width="1mm" height="1mm" /><rect x="16mm" y="24mm" width="1mm" height="1mm" /><rect x="19mm" y="24mm" width="1mm" height="1mm" /><rect x="20mm" y="24mm" width="1mm" height="1mm" /><rect x="21mm" y="24mm" width="1mm" height="1mm" /><rect x="28mm" y="24mm" width="1mm" height="1mm" /><rect x="31mm" y="24mm" width="1mm" height="1mm" /><rect x="32mm" y="24mm" width="1mm" height="1mm" /><rect x="33mm" y="24mm" width="1mm" height="1mm" /><rect x="34mm" y="24mm" width="1mm" height="1mm" /><rect x="35mm" y="24mm" width="1mm" height="1mm" /><rect x="36mm" y="24mm" width="1mm" height="1mm" /><rect x="37mm" y="24mm" width="1mm" height="1mm" /><rect x="4mm" y="25mm" width="1mm" height="1mm" /><rect x="7mm" y="25mm" width="1mm" height="1mm" /><rect x="8mm" y="25mm" width="1mm" height="1mm" /><rect x="11mm" y="25mm" width="1mm" height="1mm" /><rect x="12mm" y="25mm" width="1mm" height="1mm" /><rect x="14mm" y="25mm" width="1mm" height="1mm" /><rect x="16mm" y="25mm" width="1mm" height="1mm" /><rect x="17mm" y="25mm" width="1mm" height="1mm" /><rect x="18mm" y="25mm" width="1mm" height="1mm" /><rect x="19mm" y="25mm" width="1mm" height="1mm" /><rect x="22mm" y="25mm" width="1mm" height="1mm" /><rect x="23mm" y="25mm" width="1mm" height="1mm" /><rect x="24mm" y="25mm" width="1mm" height="1mm" /><rect x="25mm" y="25mm" width="1mm" height="1mm" /><rect x="26mm" y="25mm" width="1mm" height="1mm" /><rect x="27mm" y="25mm" width="1mm" height="1mm" /><rect x="29mm" y="25mm" width="1mm" height="1mm" /><rect x="30mm" y="25mm" width="1mm" height="1mm" /><rect x="31mm" y="25mm" width="1mm" height="1mm" /><rect x="33mm" y="25mm" width="1mm" height="1mm" /><rect x="36mm" y="25mm" width="1mm" height="1mm" /><rect x="38mm" y="25mm" width="1mm" height="1mm" /><rect x="39mm" y="25mm" width="1mm" height="1mm" /><rect x="40mm" y="25mm" width="1mm" height="1mm" /><rect x="4mm" y="26mm" width="1mm" height="1mm" /><rect x="8mm" y="26mm" width="1mm" height="1mm" /><rect x="9mm" y="26mm" width="1mm" height="1mm" /><rect x="10mm" y="26mm" width="1mm" height="1mm" /><rect x="11mm" y="26mm" width="1mm" height="1mm" /><rect x="19mm" y="26mm" width="1mm" height="1mm" /><rect x="20mm" y="26mm" width="1mm" height="1mm" /><rect x="21mm" y="26mm" width="1mm" height="1mm" /><rect x="22mm" y="26mm" width="1mm" height="1mm" /><rect x="24mm" y="26mm" width="1mm" height="1mm" /><rect x="26mm" y="26mm" width="1mm" height="1mm" /><rect x="27mm" y="26mm" width="1mm" height="1mm" /><rect x="28mm" y="26mm" width="1mm" height="1mm" /><rect x="30mm" y="26mm" width="1mm" height="1mm" /><rect x="31mm" y="26mm" width="1mm" height="1mm" /><rect x="32mm" y="26mm" width="1mm" height="1mm" /><rect x="33mm" y="26mm" width="1mm" height="1mm" /><rect x="34mm" y="26mm" width="1mm" height="1mm" /><rect x="35mm" y="26mm" width="1mm" height="1mm" /><rect x="37mm" y="26mm" width="1mm" height="1mm" /><rect x="40mm" y="26mm" width="1mm" height="1mm" /><rect x="4mm" y="27mm" width="1mm" height="1mm" /><rect x="5mm" y="27mm" width="1mm" height="1mm" /><rect x="7mm" y="27mm" width="1mm" height="1mm" /><rect x="8mm" y="27mm" width="1mm" height="1mm" /><rect x="12mm" y="27mm" width="1mm" height="1mm" /><rect x="13mm" y="27mm" width="1mm" height="1mm" /><rect x="17mm" y="27mm" width="1mm" height="1mm" /><rect x="20mm" y="27mm" width="1mm" height="1mm" /><rect x="21mm" y="27mm" width="1mm" height="1mm" /><rect x="25mm" y="27mm" width="1mm" height="1mm" /><rect x="26mm" y="27mm" width="1mm" height="1mm" /><rect x="28mm" y="27mm" width="1mm" height="1mm" /><rect x="35mm" y="27mm" width="1mm" height="1mm" /><rect x="36mm" y="27mm" width="1mm" height="1mm" /><rect x="37mm" y="27mm" width="1mm" height="1mm" /><rect x="38mm" y="27mm" width="1mm" height="1mm" /><rect x="40mm" y="27mm" width="1mm" height="1mm" /><rect x="7mm" y="28mm" width="1mm" height="1mm" /><rect x="8mm" y="28mm" width="1mm" height="1mm" /><rect x="10mm" y="28mm" width="1mm" height="1mm" /><rect x="11mm" y="28mm" width="1mm" height="1mm" /><rect x="13mm" y="28mm" width="1mm" height="1mm" /><rect x="14mm" y="28mm" width="1mm" height="1mm" /><rect x="15mm" y="28mm" width="1mm" height="1mm" /><rect x="16mm" y="28mm" width="1mm" height="1mm" /><rect x="18mm" y="28mm" width="1mm" height="1mm" /><rect x="20mm" y="28mm" width="1mm" height="1mm" /><rect x="21mm" y="28mm" width="1mm" height="1mm" /><rect x="22mm" y="28mm" width="1mm" height="1mm" /><rect x="23mm" y="28mm" width="1mm" height="1mm" /><rect x="25mm" y="28mm" width="1mm" height="1mm" /><rect x="27mm" y="28mm" width="1mm" height="1mm" /><rect x="28mm" y="28mm" width="1mm" height="1mm" /><rect x="31mm" y="28mm" width="1mm" height="1mm" /><rect x="32mm" y="28mm" width="1mm" height="1mm" /><rect x="34mm" y="28mm" width="1mm" height="1mm" /><rect x="4mm" y="29mm" width="1mm" height="1mm" /><rect x="6mm" y="29mm" width="1mm" height="1mm" /><rect x="7mm" y="29mm" width="1mm" height="1mm" /><rect x="12mm" y="29mm" width="1mm" height="1mm" /><rect x="14mm" y="29mm" width="1mm" height="1mm" /><rect x="16mm" y="29mm" width="1mm" height="1mm" /><rect x="18mm" y="29mm" width="1mm" height="1mm" /><rect x="20mm" y="29mm" width="1mm" height="1mm" /><rect x="21mm" y="29mm" width="1mm" height="1mm" /><rect x="23mm" y="29mm" width="1mm" height="1mm" /><rect x="24mm" y="29mm" width="1mm" height="1mm" /><rect x="30mm" y="29mm" width="1mm" height="1mm" /><rect x="31mm" y="29mm" width="1mm" height="1mm" /><rect x="32mm" y="29mm" width="1mm" height="1mm" /><rect x="36mm" y="29mm" width="1mm" height="1mm" /><rect x="38mm" y="29mm" width="1mm" height="1mm" /><rect x="4mm" y="30mm" width="1mm" height="1mm" /><rect x="5mm" y="30mm" width="1mm" height="1mm" /><rect x="8mm" y="30mm" width="1mm" height="1mm" /><rect x="10mm" y="30mm" width="1mm" height="1mm" /><rect x="12mm" y="30mm" width="1mm" height="1mm" /><rect x="13mm" y="30mm" width="1mm" height="1mm" /><rect x="16mm" y="30mm" width="1mm" height="1mm" /><rect x="18mm" y="30mm" width="1mm" height="1mm" /><rect x="20mm" y="30mm" width="1mm" height="1mm" /><rect x="23mm" y="30mm" width="1mm" height="1mm" /><rect x="24mm" y="30mm" width="1mm" height="1mm" /><rect x="25mm" y="30mm" width="1mm" height="1mm" /><rect x="27mm" y="30mm" width="1mm" height="1mm" /><rect x="28mm" y="30mm" width="1mm" height="1mm" /><rect x="30mm" y="30mm" width="1mm" height="1mm" /><rect x="31mm" y="30mm" width="1mm" height="1mm" /><rect x="32mm" y="30mm" width="1mm" height="1mm" /><rect x="33mm" y="30mm" width="1mm" height="1mm" /><rect x="34mm" y="30mm" width="1mm" height="1mm" /><rect x="35mm" y="30mm" width="1mm" height="1mm" /><rect x="38mm" y="30mm" width="1mm" height="1mm" /><rect x="39mm" y="30mm" width="1mm" height="1mm" /><rect x="40mm" y="30mm" width="1mm" height="1mm" /><rect x="4mm" y="31mm" width="1mm" height="1mm" /><rect x="8mm" y="31mm" width="1mm" height="1mm" /><rect x="12mm" y="31mm" width="1mm" height="1mm" /><rect x="17mm" y="31mm" width="1mm" height="1mm" /><rect x="18mm" y="31mm" width="1mm" height="1mm" /><rect x="19mm" y="31mm" width="1mm" height="1mm" /><rect x="24mm" y="31mm" width="1mm" height="1mm" /><rect x="27mm" y="31mm" width="1mm" height="1mm" /><rect x="31mm" y="31mm" width="1mm" height="1mm" /><rect x="34mm" y="31mm" width="1mm" height="1mm" /><rect x="35mm" y="31mm" width="1mm" height="1mm" /><rect x="36mm" y="31mm" width="1mm" height="1mm" /><rect x="37mm" y="31mm" width="1mm" height="1mm" /><rect x="38mm" y="31mm" width="1mm" height="1mm" /><rect x="39mm" y="31mm" width="1mm" height="1mm" /><rect x="4mm" y="32mm" width="1mm" height="1mm" /><rect x="6mm" y="32mm" width="1mm" height="1mm" /><rect x="10mm" y="32mm" width="1mm" height="1mm" /><rect x="11mm" y="32mm" width="1mm" height="1mm" /><rect x="12mm" y="32mm" width="1mm" height="1mm" /><rect x="13mm" y="32mm" width="1mm" height="1mm" /><rect x="15mm" y="32mm" width="1mm" height="1mm" /><rect x="16mm" y="32mm" width="1mm" height="1mm" /><rect x="17mm" y="32mm" width="1mm" height="1mm" /><rect x="18mm" y="32mm" width="1mm" height="1mm" /><rect x="26mm" y="32mm" width="1mm" height="1mm" /><rect x="28mm" y="32mm" width="1mm" height="1mm" /><rect x="32mm" y="32mm" width="1mm" height="1mm" /><rect x="33mm" y="32mm" width="1mm" height="1mm" /><rect x="34mm" y="32mm" width="1mm" height="1mm" /><rect x="35mm" y="32mm" width="1mm" height="1mm" /><rect x="36mm" y="32mm" width="1mm" height="1mm" /><rect x="38mm" y="32mm" width="1mm" height="1mm" /><rect x="12mm" y="33mm" width="1mm" height="1mm" /><rect x="13mm" y="33mm" width="1mm" height="1mm" /><rect x="15mm" y="33mm" width="1mm" height="1mm" /><rect x="17mm" y="33mm" width="1mm" height="1mm" /><rect x="19mm" y="33mm" width="1mm" height="1mm" /><rect x="22mm" y="33mm" width="1mm" height="1mm" /><rect x="23mm" y="33mm" width="1mm" height="1mm" /><rect x="29mm" y="33mm" width="1mm" height="1mm" /><rect x="30mm" y="33mm" width="1mm" height="1mm" /><rect x="31mm" y="33mm" width="1mm" height="1mm" /><rect x="32mm" y="33mm" width="1mm" height="1mm" /><rect x="36mm" y="33mm" width="1mm" height="1mm" /><rect x="38mm" y="33mm" width="1mm" height="1mm" /><rect x="39mm" y="33mm" width="1mm" height="1mm" /><rect x="4mm" y="34mm" width="1mm" height="1mm" /><rect x="5mm" y="34mm" width="1mm" height="1mm" /><rect x="6mm" y="34mm" width="1mm" height="1mm" /><rect x="7mm" y="34mm" width="1mm" height="1mm" /><rect x="8mm" y="34mm" width="1mm" height="1mm" /><rect x="9mm" y="34mm" width="1mm" height="1mm" /><rect x="10mm" y="34mm" width="1mm" height="1mm" /><rect x="12mm" y="34mm" width="1mm" height="1mm" /><rect x="13mm" y="34mm" width="1mm" height="1mm" /><rect x="14mm" y="34mm" width="1mm" height="1mm" /><rect x="19mm" y="34mm" width="1mm" height="1mm" /><rect x="20mm" y="34mm" width="1mm" height="1mm" /><rect x="23mm" y="34mm" width="1mm" height="1mm" /><rect x="25mm" y="34mm" width="1mm" height="1mm" /><rect x="26mm" y="34mm" width="1mm" height="1mm" /><rect x="27mm" y="34mm" width="1mm" height="1mm" /><rect x="32mm" y="34mm" width="1mm" height="1mm" /><rect x="34mm" y="34mm" width="1mm" height="1mm" /><rect x="36mm" y="34mm" width="1mm" height="1mm" /><rect x="39mm" y="34mm" width="1mm" height="1mm" /><rect x="40mm" y="34mm" width="1mm" height="1mm" /><rect x="4mm" y="35mm" width="1mm" height="1mm" /><rect x="10mm" y="35mm" width="1mm" height="1mm" /><rect x="12mm" y="35mm" width="1mm" height="1mm" /><rect x="14mm" y="35mm" width="1mm" height="1mm" /><rect x="18mm" y="35mm" width="1mm" height="1mm" /><rect x="20mm" y="35mm" width="1mm" height="1mm" /><rect x="21mm" y="35mm" width="1mm" height="1mm" /><rect x="22mm" y="35mm" width="1mm" height="1mm" /><rect x="23mm" y="35mm" width="1mm" height="1mm" /><rect x="24mm" y="35mm" width="1mm" height="1mm" /><rect x="26mm" y="35mm" width="1mm" height="1mm" /><rect x="29mm" y="35mm" width="1mm" height="1mm" /><rect x="31mm" y="35mm" width="1mm" height="1mm" /><rect x="32mm" y="35mm" width="1mm" height="1mm" /><rect x="36mm" y="35mm" width="1mm" height="1mm" /><rect x="4mm" y="36mm" width="1mm" height="1mm" /><rect x="6mm" y="36mm" width="1mm" height="1mm" /><rect x="7mm" y="36mm" width="1mm" height="1mm" /><rect x="8mm" y="36mm" width="1mm" height="1mm" /><rect x="10mm" y="36mm" width="1mm" height="1mm" /><rect x="12mm" y="36mm" width="1mm" height="1mm" /><rect x="13mm" y="36mm" width="1mm" height="1mm" /><rect x="15mm" y="36mm" width="1mm" height="1mm" /><rect x="16mm" y="36mm" width="1mm" height="1mm" /><rect x="17mm" y="36mm" width="1mm" height="1mm" /><rect x="18mm" y="36mm" width="1mm" height="1mm" /><rect x="19mm" y="36mm" width="1mm" height="1mm" /><rect x="23mm" y="36mm" width="1mm" height="1mm" /><rect x="25mm" y="36mm" width="1mm" height="1mm" /><rect x="26mm" y="36mm" width="1mm" height="1mm" /><rect x="28mm" y="36mm" width="1mm" height="1mm" /><rect x="30mm" y="36mm" width="1mm" height="1mm" /><rect x="31mm" y="36mm" width="1mm" height="1mm" /><rect x="32mm" y="36mm" width="1mm" height="1mm" /><rect x="33mm" y="36mm" width="1mm" height="1mm" /><rect x="34mm" y="36mm" width="1mm" height="1mm" /><rect x="35mm" y="36mm" width="1mm" height="1mm" /><rect x="36mm" y="36mm" width="1mm" height="1mm" /><rect x="39mm" y="36mm" width="1mm" height="1mm" /><rect x="4mm" y="37mm" width="1mm" height="1mm" /><rect x="6mm" y="37mm" width="1mm" height="1mm" /><rect x="7mm" y="37mm" width="1mm" height="1mm" /><rect x="8mm" y="37mm" width="1mm" height="1mm" /><rect x="10mm" y="37mm" width="1mm" height="1mm" /><rect x="12mm" y="37mm" width="1mm" height="1mm" /><rect x="14mm" y="37mm" width="1mm" height="1mm" /><rect x="16mm" y="37mm" width="1mm" height="1mm" /><rect x="18mm" y="37mm" width="1mm" height="1mm" /><rect x="20mm" y="37mm" width="1mm" height="1mm" /><rect x="22mm" y="37mm" width="1mm" height="1mm" /><rect x="28mm" y="37mm" width="1mm" height="1mm" /><rect x="30mm" y="37mm" width="1mm" height="1mm" /><rect x="32mm" y="37mm" width="1mm" height="1mm" /><rect x="33mm" y="37mm" width="1mm" height="1mm" /><rect x="34mm" y="37mm" width="1mm" height="1mm" /><rect x="38mm" y="37mm" width="1mm" height="1mm" /><rect x="39mm" y="37mm" width="1mm" height="1mm" /><rect x="4mm" y="38mm" width="1mm" height="1mm" /><rect x="6mm" y="38mm" width="1mm" height="1mm" /><rect x="7mm" y="38mm" width="1mm" height="1mm" /><rect x="8mm" y="38mm" width="1mm" height="1mm" /><rect x="10mm" y="38mm" width="1mm" height="1mm" /><rect x="13mm" y="38mm" width="1mm" height="1mm" /><rect x="16mm" y="38mm" width="1mm" height="1mm" /><rect x="18mm" y="38mm" width="1mm" height="1mm" /><rect x="19mm" y="38mm" width="1mm" height="1mm" /><rect x="20mm" y="38mm" width="1mm" height="1mm" /><rect x="21mm" y="38mm" width="1mm" height="1mm" /><rect x="22mm" y="38mm" width="1mm" height="1mm" /><rect x="23mm" y="38mm" width="1mm" height="1mm" /><rect x="24mm" y="38mm" width="1mm" height="1mm" /><rect x="25mm" y="38mm" width="1mm" height="1mm" /><rect x="27mm" y="38mm" width="1mm" height="1mm" /><rect x="28mm" y="38mm" width="1mm" height="1mm" /><rect x="29mm" y="38mm" width="1mm" height="1mm" /><rect x="30mm" y="38mm" width="1mm" height="1mm" /><rect x="31mm" y="38mm" width="1mm" height="1mm" /><rect x="32mm" y="38mm" width="1mm" height="1mm" /><rect x="33mm" y="38mm" width="1mm" height="1mm" /><rect x="36mm" y="38mm" width="1mm" height="1mm" /><rect x="37mm" y="38mm" width="1mm" height="1mm" /><rect x="39mm" y="38mm" width="1mm" height="1mm" /><rect x="40mm" y="38mm" width="1mm" height="1mm" /><rect x="4mm" y="39mm" width="1mm" height="1mm" /><rect x="10mm" y="39mm" width="1mm" height="1mm" /><rect x="13mm" y="39mm" width="1mm" height="1mm" /><rect x="14mm" y="39mm" width="1mm" height="1mm" /><rect x="16mm" y="39mm" width="1mm" height="1mm" /><rect x="18mm" y="39mm" width="1mm" height="1mm" /><rect x="20mm" y="39mm" width="1mm" height="1mm" /><rect x="21mm" y="39mm" width="1mm" height="1mm" /><rect x="23mm" y="39mm" width="1mm" height="1mm" /><rect x="24mm" y="39mm" width="1mm" height="1mm" /><rect x="26mm" y="39mm" width="1mm" height="1mm" /><rect x="30mm" y="39mm" width="1mm" height="1mm" /><rect x="33mm" y="39mm" width="1mm" height="1mm" /><rect x="36mm" y="39mm" width="1mm" height="1mm" /><rect x="37mm" y="39mm" width="1mm" height="1mm" /><rect x="38mm" y="39mm" width="1mm" height="1mm" /><rect x="39mm" y="39mm" width="1mm" height="1mm" /><rect x="40mm" y="39mm" width="1mm" height="1mm" /><rect x="4mm" y="40mm" width="1mm" height="1mm" /><rect x="5mm" y="40mm" width="1mm" height="1mm" /><rect x="6mm" y="40mm" width="1mm" height="1mm" /><rect x="7mm" y="40mm" width="1mm" height="1mm" /><rect x="8mm" y="40mm" width="1mm" height="1mm" /><rect x="9mm" y="40mm" width="1mm" height="1mm" /><rect x="10mm" y="40mm" width="1mm" height="1mm" /><rect x="12mm" y="40mm" width="1mm" height="1mm" /><rect x="19mm" y="40mm" width="1mm" height="1mm" /><rect x="26mm" y="40mm" width="1mm" height="1mm" /><rect x="32mm" y="40mm" width="1mm" height="1mm" /><rect x="34mm" y="40mm" width="1mm" height="1mm" /><rect x="35mm" y="40mm" width="1mm" height="1mm" /><rect x="40mm" y="40mm" width="1mm" height="1mm" /></svg>